<?xml version="1.0" encoding="utf-8"?><svg xmlns="http://www.w3.org/2000/svg" xmlns:xlink="http://www.w3.org/1999/xlink"><symbol viewBox="0 0 32 32" id="icon-fb" xmlns="http://www.w3.org/2000/svg"><path d="M13.04 29.333L13 17.666H8v-5h5V9.333c0-4.493 2.787-6.667 6.8-6.667 1.92 0 3.573.133 4.053.2v4.707h-2.787c-2.173 0-2.6 1.04-2.6 2.56v2.533h6.2l-1.667 5h-4.533v11.667h-5.427.001z"/></symbol><symbol viewBox="0 0 32 32" id="icon-theme-switcher" xmlns="http://www.w3.org/2000/svg"><path d="M14.344.026a12.39 12.39 0 00-.896.113C6.451 1.298 1.191 6.624.078 13.677c-.086.546-.108 3.705-.03 4.334.831 6.696 6.065 12.302 12.731 13.636 1.902.38 4.307.393 6.159.032 8.736-1.703 14.326-9.961 12.708-18.772C30.418 6.221 24.861 1.003 17.977.07 17.5.005 15.01-.025 14.344.025v.001zm2.838 1.969c10.231.98 16.042 12.219 10.862 21.01-2.473 4.197-7.148 6.963-11.769 6.965h-.35V1.946h.37c.203 0 .603.022.888.05l-.001-.001z"/></symbol><symbol viewBox="0 0 32 32" id="icon-tw" xmlns="http://www.w3.org/2000/svg"><path d="M29.333 7.84c-1 .493-2 .667-3.173.827 1.173-.667 2-1.667 2.333-3a10.755 10.755 0 01-3.423 1.322l-.07.012a5.795 5.795 0 00-3.996-1.667H21c-2.84 0-5.333 2.507-5.333 5.507 0 .493 0 .827.173 1.16A15.317 15.317 0 014.529 6.362l-.022-.028a5.012 5.012 0 00-.666 2.855l-.001-.015a5.466 5.466 0 002.473 4.481l.021.013c-.84 0-1.667-.333-2.507-.667 0 2.667 1.84 4.84 4.333 5.333-.493.173-1 .173-1.493.173-.333 0-.667 0-1-.173.667 2.173 2.667 3.84 5.173 3.84a10.535 10.535 0 01-6.637 2.335l-.213-.002h.011-1.333c2.365 1.509 5.236 2.429 8.316 2.493h.017c10 0 15.507-8.333 15.507-15.507v-.667a9.777 9.777 0 002.803-2.944l.024-.042h-.002z"/></symbol><symbol viewBox="0 0 32 32" id="inst" xmlns="http://www.w3.org/2000/svg"><path d="M17.36 2.667c2.4 0 2.907.027 4.133.08 1.413.067 2.387.293 3.227.627.88.333 1.627.8 2.36 1.533.747.733 1.2 1.48 1.547 2.36.333.84.547 1.813.613 3.24.067 1.267.08 1.76.08 4.427v2.133c0 2.667-.013 3.16-.08 4.427a9.763 9.763 0 01-.636 3.294l.022-.067c-.347.88-.8 1.627-1.533 2.36a6.632 6.632 0 01-2.373 1.547c-.84.333-1.813.547-3.227.613-1.267.067-1.773.08-4.44.08h-2.12c-2.667 0-3.16-.013-4.44-.08a9.763 9.763 0 01-3.294-.636l.067.022a6.575 6.575 0 01-2.359-1.533l-.001-.001a6.544 6.544 0 01-1.532-2.329l-.015-.045a9.59 9.59 0 01-.613-3.217v-.01a70.693 70.693 0 01-.08-4.167v.034-2.733c0-2.4.027-2.907.08-4.133.067-1.413.293-2.387.613-3.227.347-.88.8-1.627 1.547-2.36a6.27 6.27 0 012.317-1.519l.043-.014a9.576 9.576 0 013.215-.626h.012c1.227-.053 1.733-.08 4.133-.08h2.734zm.027 2.4H14.6c-2.307 0-2.8.027-4 .08-1.293.053-2 .267-2.467.453a4.068 4.068 0 00-1.533 1c-.466.467-.76.907-1 1.533-.173.467-.4 1.173-.453 2.48-.053 1.2-.08 1.68-.08 4v2.773c0 2.32.027 2.8.08 4 .053 1.293.267 2 .453 2.467.24.627.533 1.067 1 1.533.467.466.907.76 1.533 1 .467.187 1.173.4 2.48.453 1.293.067 1.76.08 4.64.08h1.48c2.893 0 3.347-.013 4.653-.08 1.293-.053 2-.267 2.467-.453a4.068 4.068 0 001.533-1c.466-.467.76-.907 1-1.533.187-.467.4-1.173.453-2.467.067-1.307.08-1.76.08-4.653v-1.467c0-2.893-.013-3.36-.08-4.667-.053-1.293-.267-2-.453-2.467a4.142 4.142 0 00-.999-1.532l-.001-.001a4.141 4.141 0 00-1.505-.991l-.028-.009a7.322 7.322 0 00-2.462-.453h-.005a70.03 70.03 0 00-4.03-.08h.03l.001.001zM16 9.147a6.847 6.847 0 110 13.694 6.847 6.847 0 010-13.694zm0 2.4a4.447 4.447 0 100 8.894 4.447 4.447 0 000-8.894zm7.107-4.267a1.6 1.6 0 110 3.2 1.6 1.6 0 010-3.2z"/></symbol><symbol viewBox="0 0 50 50" id="logo" xmlns="http://www.w3.org/2000/svg"><path d="M20.45 5.26c-1.358.437-2.504 1.217-2.79 1.896l-.12.286-1.884-.009-.244-.503c-.187-.383-.349-.56-.686-.743l-.44-.241h-3.18c-4.171 0-4.697.207-4.697 1.858v.464l-.71.347c-2.615 1.277-4.664 3.801-5.473 6.74l-.226.82v10.083c0 11.012-.033 10.3.547 11.859 1.301 3.492 4.316 6.018 8.002 6.709 1.24.232 31.662.232 32.902 0 3.686-.69 6.701-3.216 8.002-6.71.58-1.558.547-.846.547-11.858V16.175l-.217-.772c-1.134-4.038-4.04-6.791-8.149-7.724-.614-.14-1.42-.174-4.958-.21l-4.223-.045-.116-.277c-.287-.681-1.516-1.501-2.87-1.914-1.068-.325-7.991-.305-9.016.026zm19.61 5.562c2.993.304 5.326 2.13 6.338 4.965l.275.772.028 9.312c.032 10.648.064 10.15-.777 11.863-.948 1.928-2.86 3.386-4.995 3.811-1.143.228-30.718.228-31.858 0-2.155-.43-4.06-1.917-5.062-3.95-.764-1.552-.742-1.188-.71-11.724l.028-9.312.304-.843c.977-2.7 3.365-4.6 6.143-4.887 1.185-.122 29.078-.13 30.286-.008v.001zM9.517 11.888c-3.138.454-5.163 3.006-5.163 6.51v1.297h6.712l.225-.458c.993-2.025 2.993-4.22 5.145-5.65.804-.535 2.925-1.61 3.175-1.61.058 0 .105-.044.105-.098 0-.118-9.37-.111-10.199.008v.001zm20.767-.033c0 .045.165.14.367.21 3.07 1.064 6.811 4.405 8.088 7.221l.186.41h6.722V18.4c0-3.27-1.513-5.415-4.5-6.382-.589-.19-10.862-.343-10.862-.161l-.001-.001zm-6.213.663c-11.405 1.098-16.939 13.457-9.978 22.28 7.696 9.753 23.784 4.904 24.793-7.474.675-8.29-6.633-15.593-14.815-14.806zm2.593 3.427c6.569.93 10.664 8.018 8.164 14.132-2.88 7.045-12.12 8.85-17.414 3.403-7.023-7.226-.832-18.961 9.25-17.534zm-2.792 1.627c-5.91.823-9.319 6.775-6.983 12.198 2.68 6.224 11.672 6.996 15.487 1.33 4.175-6.2-1.081-14.56-8.504-13.528zm3.845 1.338c1.141.35 1.995 1.167 2.015 1.927.046 1.752-3.503 1.696-4.69-.073-.903-1.345.705-2.459 2.675-1.854zM22.7 32.255c1.081.225 2.691 1.2 2.691 1.63 0 1.002-3.634.354-4.695-.836-.733-.824.16-1.178 2.004-.794zM41.913 36c-2.02.618-1.628 3.387.477 3.38 2.14-.006 2.3-3.116.174-3.406-.215-.03-.508-.017-.651.027z"/></symbol><symbol viewBox="0 0 32 50" id="mic" xmlns="http://www.w3.org/2000/svg"><path fill="#ccba8d" d="M4.371 50v-2.898h10.216V40.93C6.391 40.113.038 33.272 0 24.938v-.004h2.881a13.08 13.08 0 005.526 10.647l.041.027a12.547 12.547 0 007.511 2.474c.237 0 .473-.007.708-.019l-.033.001c6.993-.339 12.543-6.06 12.606-13.091v-.006h2.898v.111a15.68 15.68 0 01-4.233 10.737l.008-.009a15.886 15.886 0 01-10.268 5.12l-.063.005v6.09h10.249v2.947z"/><path fill="#bdae82" d="M26.326 11.706v4.404H19.04v2.914h7.269v4.388h-7.253v2.947h7.138c-.719 5.01-4.982 8.818-10.134 8.818s-9.415-3.808-10.128-8.763l-.006-.055h7.171v-2.898H5.861v-4.404h7.236v-2.931H5.861v-4.371h7.236V8.792H5.959C6.724 3.832 10.963.078 16.078.078c5.109 0 9.344 3.745 10.109 8.64l.007.058h-7.155v2.931z"/></symbol><symbol viewBox="0 0 36 36" id="mute" xmlns="http://www.w3.org/2000/svg"><path d="M18.405 2.387c-.445 0-.831.163-1.156.488l-8.556 8.556H1.961c-.446 0-.831.163-1.156.488s-.488.711-.488 1.156v9.865c0 .445.163.831.488 1.156s.711.488 1.156.488h6.732l8.556 8.556c.326.325.711.488 1.156.488s.831-.163 1.156-.488.488-.711.488-1.156V4.029c0-.445-.163-.831-.488-1.156s-.711-.488-1.156-.488zM31.902 18.679l3.468-3.468c.22-.22.33-.488.33-.802s-.11-.582-.33-.802l-1.604-1.604c-.22-.22-.488-.33-.802-.33s-.582.11-.802.33l-3.468 3.468-3.468-3.468c-.22-.22-.488-.33-.802-.33s-.582.11-.802.33l-1.604 1.604c-.22.22-.33.488-.33.802s.11.582.33.802l3.468 3.468-3.468 3.468c-.22.22-.33.488-.33.802s.11.582.33.802l1.604 1.604c.22.22.488.33.802.33s.582-.11.802-.33l3.468-3.468 3.468 3.468c.22.22.487.33.802.33s.582-.11.802-.33l1.604-1.604c.22-.22.33-.488.33-.802s-.11-.582-.33-.802l-3.468-3.468z"/></symbol><symbol viewBox="0 0 36 36" id="pause" xmlns="http://www.w3.org/2000/svg"><path d="M15.047 34.594V1.4c0-.618-.498-1.116-1.126-1.116H7.314c-.628 0-1.126.498-1.126 1.116v33.194c0 .618.498 1.126 1.126 1.126h6.607c.628 0 1.126-.498 1.126-1.126zM28.687.281H22.08c-.618 0-1.126.498-1.126 1.116v33.194c0 .618.498 1.126 1.126 1.126h6.607c.618 0 1.126-.498 1.126-1.126V1.397c0-.618-.498-1.116-1.126-1.116z"/></symbol><symbol viewBox="0 0 32 32" id="pinterest" xmlns="http://www.w3.org/2000/svg"><path d="M16 2.667C8.657 2.694 2.714 8.653 2.714 16c0 5.599 3.452 10.393 8.343 12.368l.089.032c-.133-1.053-.227-2.667.04-3.827l1.56-6.627s-.4-.8-.4-1.973c0-1.853 1.08-3.227 2.427-3.227 1.133 0 1.693.853 1.693 1.867 0 1.147-.733 2.853-1.12 4.44-.32 1.333.667 2.413 1.987 2.413 2.373 0 4.187-2.493 4.187-6.093 0-3.2-2.293-5.413-5.573-5.413a5.773 5.773 0 00-6.026 5.767v.006c0 1.147.44 2.373.987 3.04.107.133.12.253.08.387l-.373 1.507c-.053.24-.2.307-.44.187-1.68-.787-2.72-3.2-2.72-5.173 0-4.2 3.067-8.053 8.827-8.053 4.613 0 8.227 3.28 8.227 7.693 0 4.6-2.907 8.293-6.933 8.293-1.333 0-2.613-.707-3.04-1.533l-.84 3.16a14.615 14.615 0 01-1.688 3.563l.034-.056c1.17.372 2.516.587 3.911.587 7.364 0 13.333-5.97 13.333-13.333 0-7.347-5.942-13.306-13.282-13.333h-.003L16 2.667z"/></symbol><symbol viewBox="0 0 23 30" id="play" xmlns="http://www.w3.org/2000/svg"><g clip-path="url(#jclip0)"><path d="M22.35 14.75L0 0v29.49l22.35-14.74z"/></g><defs><clipPath id="jclip0"><path d="M0 0h22.35v29.49H0z"/></clipPath></defs></symbol><symbol viewBox="0 0 16 16" id="popup" xmlns="http://www.w3.org/2000/svg"><path d="M3.5 2A2.5 2.5 0 001 4.5v5A2.5 2.5 0 003.5 12H7v-2a2 2 0 012-2h5V4.5A2.5 2.5 0 0011.5 2h-8zM8 10a1 1 0 011-1h5a1 1 0 011 1v3a1 1 0 01-1 1H9a1 1 0 01-1-1v-3z"/></symbol><symbol viewBox="0 0 0 0" id="sprite" xmlns="http://www.w3.org/2000/svg"/><symbol viewBox="0 0 36 36" id="volume" xmlns="http://www.w3.org/2000/svg"><path d="M17.995 2.95c-.429 0-.801.157-1.115.471l-8.248 8.248H2.143c-.43 0-.801.157-1.115.471s-.471.686-.471 1.115v9.51c0 .429.157.801.471 1.115s.686.471 1.115.471h6.489l8.248 8.248c.314.314.685.471 1.115.471s.801-.157 1.115-.471.471-.685.471-1.115V4.536c0-.429-.157-.801-.47-1.115s-.685-.471-1.115-.471zM28.04 21.515c.702-1.081 1.053-2.249 1.053-3.505s-.351-2.428-1.053-3.518c-.702-1.09-1.63-1.858-2.787-2.304a1.387 1.387 0 00-.619-.124c-.429 0-.801.153-1.115.458a1.513 1.513 0 00-.471 1.127c0 .347.099.64.298.879s.437.446.718.619c.28.173.561.363.842.57s.52.499.718.879c.198.38.297.851.297 1.412s-.099 1.032-.297 1.412c-.198.38-.437.673-.718.879s-.562.397-.842.57c-.281.173-.52.38-.718.619s-.298.533-.298.879c0 .446.158.821.471 1.127a1.55 1.55 0 001.115.459c.247 0 .454-.041.619-.124 1.156-.463 2.085-1.235 2.787-2.317z"/><path d="M33.327 25.008c1.404-2.137 2.106-4.471 2.106-6.999 0-2.527-.702-4.859-2.106-6.999-1.404-2.137-3.262-3.695-5.573-4.669a1.791 1.791 0 00-.644-.124c-.429 0-.801.157-1.115.471s-.47.685-.47 1.115c0 .644.322 1.131.966 1.462.924.479 1.552.842 1.882 1.09 1.222.892 2.176 2.01 2.861 3.356s1.028 2.778 1.028 4.299a9.354 9.354 0 01-1.028 4.299 9.35 9.35 0 01-2.861 3.356c-.33.248-.958.611-1.882 1.09-.644.331-.966.817-.966 1.462 0 .429.157.801.47 1.115s.693.471 1.139.471c.198 0 .405-.042.619-.124 2.311-.975 4.17-2.531 5.573-4.67z"/></symbol></svg>