<svg width="16" height="16" viewBox="0 0 16 16" xmlns="http://www.w3.org/2000/svg">
<path d="M3.5 2C2.83696 2 2.20107 2.26339 1.73223 2.73223C1.26339 3.20107 1 3.83696 1 4.5V9.5C1 9.8283 1.06466 10.1534 1.1903 10.4567C1.31594 10.76 1.50009 11.0356 1.73223 11.2678C2.20107 11.7366 2.83696 12 3.5 12H7V10C7 9.46957 7.21071 8.96086 7.58579 8.58579C7.96086 8.21071 8.46957 8 9 8H14V4.5C14 3.83696 13.7366 3.20107 13.2678 2.73223C12.7989 2.26339 12.163 2 11.5 2H3.5ZM8 10C8 9.73478 8.10536 9.48043 8.29289 9.29289C8.48043 9.10536 8.73478 9 9 9H14C14.2652 9 14.5196 9.10536 14.7071 9.29289C14.8946 9.48043 15 9.73478 15 10V13C15 13.2652 14.8946 13.5196 14.7071 13.7071C14.5196 13.8946 14.2652 14 14 14H9C8.73478 14 8.48043 13.8946 8.29289 13.7071C8.10536 13.5196 8 13.2652 8 13V10Z"/>
</svg>
